PathFileType	4	(X/Y/Z)	C:\Users\willi\Documents\UniDataLokal\DATA_Hans_PhD\TD03\3DGAIT_B_W4\marker_experimental.trc
DataRate	CameraRate	NumFrames	NumMarkers	Units	OrigDataRate	OrigDataStartFrame	OrigNumFrames
100.000000	100.000000	3	137	mm	100.000000	52	210
Frame#	Time	LFEO			LFEA			LFEL			LFEP			LFOO			LFOA			LFOL			LFOP			LTIO			LTIA			LTIL			LTIP			LTOO			LTOA			LTOL			LTOP			PELO			PELA			PELL			PELP			RFEO			RFEA			RFEL			RFEP			RFOO			RFOA			RFOL			RFOP			RTIO			RTIA			RTIL			RTIP			RTOO			RTOA			RTOL			RTOP			TRXO			TRXA			TRXL			TRXP			C7			T10			CLAV			STRN			RBAK			LASI			RASI			LPSI			RPSI			LTHI			LKNE			LMKNE			LPAT			LTUB			LTIB			LANK			LMMA			LHEE			LTOE			LD5M			RTHI			RKNE			RMKNE			RPAT			RTUB			RTIB			RANK			RMMA			RHEE			RTOE			RD5M			LTH1			LTH2			LTH3			LTB1			LTB2			LTB3			LTB4			LTB5			RTH1			RTH2			RTH3			RTB1			RTB2			RTB3			RTB4			RTB5			LIC			RIC			CentreOfMass			CentreOfMassFloor			LHipAngles			LKneeAngles			LAnkleAngles			LAbsAnkleAngle			RHipAngles			RKneeAngles			RAnkleAngles			RAbsAnkleAngle			LSpineAngles			RSpineAngles			LThoraxAngles			RThoraxAngles			LPelvisAngles			RPelvisAngles			LFootProgressAngles			RFootProgressAngles			LAnklePower			RAnklePower			LKneePower			RKneePower			LHipPower			RHipPower			LWaistPower			RWaistPower			LGroundReactionForce			RGroundReactionForce			LNormalisedGRF			RNormalisedGRF			LAnkleForce			RAnkleForce			LKneeForce			RKneeForce			LHipForce			RHipForce			LWaistForce			RWaistForce			LGroundReactionMoment			RGroundReactionMoment			LAnkleMoment			RAnkleMoment			LKneeMoment			RKneeMoment			LHipMoment			RHipMoment			LWaistMoment			RWaistMoment			
		X1	Y1	Z1	X2	Y2	Z2	X3	Y3	Z3	X4	Y4	Z4	X5	Y5	Z5	X6	Y6	Z6	X7	Y7	Z7	X8	Y8	Z8	X9	Y9	Z9	X10	Y10	Z10	X11	Y11	Z11	X12	Y12	Z12	X13	Y13	Z13	X14	Y14	Z14	X15	Y15	Z15	X16	Y16	Z16	X17	Y17	Z17	X18	Y18	Z18	X19	Y19	Z19	X20	Y20	Z20	X21	Y21	Z21	X22	Y22	Z22	X23	Y23	Z23	X24	Y24	Z24	X25	Y25	Z25	X26	Y26	Z26	X27	Y27	Z27	X28	Y28	Z28	X29	Y29	Z29	X30	Y30	Z30	X31	Y31	Z31	X32	Y32	Z32	X33	Y33	Z33	X34	Y34	Z34	X35	Y35	Z35	X36	Y36	Z36	X37	Y37	Z37	X38	Y38	Z38	X39	Y39	Z39	X40	Y40	Z40	X41	Y41	Z41	X42	Y42	Z42	X43	Y43	Z43	X44	Y44	Z44	X45	Y45	Z45	X46	Y46	Z46	X47	Y47	Z47	X48	Y48	Z48	X49	Y49	Z49	X50	Y50	Z50	X51	Y51	Z51	X52	Y52	Z52	X53	Y53	Z53	X54	Y54	Z54	X55	Y55	Z55	X56	Y56	Z56	X57	Y57	Z57	X58	Y58	Z58	X59	Y59	Z59	X60	Y60	Z60	X61	Y61	Z61	X62	Y62	Z62	X63	Y63	Z63	X64	Y64	Z64	X65	Y65	Z65	X66	Y66	Z66	X67	Y67	Z67	X68	Y68	Z68	X69	Y69	Z69	X70	Y70	Z70	X71	Y71	Z71	X72	Y72	Z72	X73	Y73	Z73	X74	Y74	Z74	X75	Y75	Z75	X76	Y76	Z76	X77	Y77	Z77	X78	Y78	Z78	X79	Y79	Z79	X80	Y80	Z80	X81	Y81	Z81	X82	Y82	Z82	X83	Y83	Z83	X84	Y84	Z84	X85	Y85	Z85	X86	Y86	Z86	X87	Y87	Z87	X88	Y88	Z88	X89	Y89	Z89	X90	Y90	Z90	X91	Y91	Z91	X92	Y92	Z92	X93	Y93	Z93	X94	Y94	Z94	X95	Y95	Z95	X96	Y96	Z96	X97	Y97	Z97	X98	Y98	Z98	X99	Y99	Z99	X100	Y100	Z100	X101	Y101	Z101	X102	Y102	Z102	X103	Y103	Z103	X104	Y104	Z104	X105	Y105	Z105	X106	Y106	Z106	X107	Y107	Z107	X108	Y108	Z108	X109	Y109	Z109	X110	Y110	Z110	X111	Y111	Z111	X112	Y112	Z112	X113	Y113	Z113	X114	Y114	Z114	X115	Y115	Z115	X116	Y116	Z116	X117	Y117	Z117	X118	Y118	Z118	X119	Y119	Z119	X120	Y120	Z120	X121	Y121	Z121	X122	Y122	Z122	X123	Y123	Z123	X124	Y124	Z124	X125	Y125	Z125	X126	Y126	Z126	X127	Y127	Z127	X128	Y128	Z128	X129	Y129	Z129	X130	Y130	Z130	X131	Y131	Z131	X132	Y132	Z132	X133	Y133	Z133	X134	Y134	Z134	X135	Y135	Z135	X136	Y136	Z136	X137	Y137	Z137	

53	0.52	-587.7105102539062	497.0206604003907	226.6321105957031	-270.7901306152343	653.1785278320312	310.1354370117188	-524.6702270507812	557.5059204101562	-125.7371520996094	-753.191650390625	819.1275634765625	252.3174896240234	-592.5774536132812	78.12506866455082	169.9516143798828	-530.6640014648438	262.0378417968751	163.5308837890625	-650.2317504882812	91.07717895507817	-14.99873352050785	-767.337646484375	139.0081176757813	228.6929931640624	-708.885009765625	132.4832763671876	223.2817230224609	-405.957763671875	33.34144592285158	54.29454040527342	-868.3741455078125	188.4277801513672	-95.44096374511724	-595.0913696289062	474.8162231445313	226.4280242919922	-534.3240966796875	57.8307037353516	150.3711853027343	-513.6862182617188	119.1349639892578	148.23095703125	-553.5421752929688	62.14809417724613	88.72105407714841	-592.5774536132812	78.12506103515629	169.9516143798828	-760.3944702148438	819.2609252929688	318.6618652343749	-628.3898315429688	805.7510986328125	333.0202941894531	-745.9888916015625	818.994384765625	185.9730682373046	-746.9349365234374	952.0439453125	319.8563842773437	-804.1091918945312	480.6610717773438	363.4332275390624	-464.8945617675781	443.4911499023438	372.9483032226562	-792.3189086914062	501.0796813964844	22.87084960937495	-767.59716796875	819.3942260742188	385.0062255859374	-739.1502685546875	58.54001998901371	387.1599121093749	-740.0902099609375	251.9697875976563	389.2694396972656	-697.7574462890625	60.80185317993168	198.2103881835937	-928.1109619140625	58.07329177856451	345.7590332031249	-870.6905517578125	70.94595336914068	345.6016845703124	-507.3807373046876	6.2455978393555	475.6560058593749	-739.66162109375	65.69696044921879	-23.04196166992192	-807.9873657226562	456.7964172363282	362.3945922851562	-676.1633911132812	58.69557952880864	400.9602050781249	-676.4767456054688	123.1721649169922	401.6633911132812	-662.3657836914062	59.44951629638676	337.9770202636718	-739.1503295898438	58.53998947143559	387.1599121093749	-748.0828857421874	1285.998291015625	315.1759338378906	nan	nan	nan	nan	nan	nan	nan	nan	nan	-848.6240844726561	1356.675415039062	328.9561157226562	-882.2312622070311	1052.942504882812	312.5225830078124	-743.5848999023436	1286.13525390625	315.1861877441406	-695.7470092773436	1122.81689453125	326.8609924316406	-863.2376708984374	1261.400390625	456.6234436035156	-700.2922973632812	903.5760498046875	216.0811157226562	-723.6703491210938	904.0086669921875	431.4150085449218	-876.2371826171875	916.0303955078125	257.7638549804687	-885.0606689453125	926.17333984375	342.4657897949218	-616.568115234375	613.6835327148438	117.9866104125976	-576.770751953125	507.5169677734376	165.4835205078125	-584.035888671875	486.4906616210938	288.5118103027343	-520.9751586914062	491.8672485351563	216.7955169677734	-547.980712890625	432.3639526367188	209.9444732666015	-709.4642333984375	279.4919433593751	135.9959716796874	-725.684326171875	138.3760070800782	189.7100219726562	-688.7963256835938	133.8982696533203	262.9147338867187	-782.4617919921875	106.148063659668	238.4618225097656	-605.3789672851562	51.20986557006839	175.5963592529297	-644.3030395507812	40.93209457397465	139.2621002197265	-801.4796752929688	533.5253295898438	476.2004699707031	-806.3541259765625	476.7732238769532	428.2780151367187	-798.5902709960938	477.4543762207032	291.8209838867187	-737.56787109375	456.6992187500001	360.8465270996093	-756.8316040039062	397.3973083496094	365.7288818359374	-881.078857421875	198.2168426513672	437.9373779296874	-883.2484741210938	71.44902038574224	380.9328613281249	-851.2015380859375	89.93480682373053	304.0379638671874	-935.4954833984375	40.16358947753912	333.4553222656249	-738.0164794921875	39.46387100219731	376.6729431152343	-772.4048461914062	20.59068489074712	419.6915893554687	-724.5130615234375	615.9937133789062	175.376724243164	-669.333984375	595.9187622070312	149.9989013671875	-670.9202270507812	536.7724609375	180.683837890625	-605.5355834960938	317.6612854003907	230.0717163085937	-628.5535888671875	275.9801025390626	182.282730102539	-640.85791015625	231.6035308837891	233.4528045654297	-594.8442993164062	465.9959106445313	160.4563446044922	-599.7257080078125	455.5973205566407	283.0035705566406	-836.4550170898438	629.0365600585938	448.0924682617187	-785.6502075195312	579.5289916992188	445.3307495117187	-831.9197998046875	529.57421875	433.0007324218749	-781.7201538085938	319.7707214355469	347.7958984374999	-805.1155395507812	267.0285034179688	398.4314880371093	-810.4842529296875	223.4835662841797	342.7004699707031	-814.0775756835938	445.9776916503907	422.5744018554687	-815.6808471679688	433.5618896484376	294.4055175781249	-779.6026000976561	974.7420654296875	169.2034149169921	-800.5823974609374	983.8829345703125	459.0140380859374	-735.27685546875	848.6124877929688	307.1386718749999	-735.27685546875	4.502272237684679e-14	307.1386718749999	6.967584133148196	7.834548950195312	-32.47866058349609	-11.79460525512695	-34.51588821411133	-44.45213317871094	2.046450853347779	10.3264331817627	0.9483003616333009	-5.712603027799688e-17	0	0.9329388737678528	-3.05316948890686	4.581054210662842	0.6967958211898801	1.243532061576842	-18.02840805053711	-3.042376041412354	1.462192296981813	7.206363677978516	-9.755483627319336	5.925869343159258e-16	0	-9.677679061889648	0.08283583074808112	6.122750282287598	7.532744884490967	-0.08283583074808204	-6.122750282287598	7.532744884490967	-0.5834887623786927	0.1308945268392563	1.745221018791199	0.5834887623786925	-0.1308945268392563	1.745221018791199	-0.5127766728401177	6.176020622253418	-5.787990093231201	0.5127766728401184	-6.176020622253418	-5.787990093231201	-1.988280653953558	-17.61020851135254	70.79265594482422	-0.6396532058715884	-12.35806179046631	90.14151763916016	9.788198799197124e-19	0.01598534174263477	5.993543164427362e-35	-3.231063099486238e-17	-0.5276726484298706	-1.978455541314474e-33	9.378818639994202e-19	0.01531677320599556	5.742870113626216e-35	7.129997568706563e-19	0.01164416968822479	4.365864350222451e-35	3.015166905956044e-18	0.04924141243100166	1.846257250137049e-34	-1.29083215008106e-17	-0.2108088880777359	-7.904067304166327e-34	4.646906595590842e-18	0.07588974386453629	2.845409644113524e-34	4.646906595590842e-18	0.07588974386453629	2.845409644113524e-34	nan	nan	nan	0.202320203185082	8.326462745666504	-0.2623917162418365	nan	nan	nan	2.67473721504212	84.87729644775391	2.062387466430664	0.02780585363507269	-0.06578128039836884	0.2502541840076447	0.3896796405315404	-0.1609317064285279	-8.178859710693359	-0.05581432208418843	0.6913143992424011	0.2450543791055679	0.1632522642612453	-7.647293567657471	-1.233048915863037	-0.07811366021633137	1.444519758224487	-0.4527476727962494	0.6094721555709834	-6.747961521148682	-0.8062301278114319	0.2602859437465666	-4.011767864227295	-0.4085944294929504	0.2602859437465666	-4.011767864227295	-0.4085944294929504	nan	nan	nan	-1039.238647460938	80.32652282714849	1069.576538085938	2.997146740791599e-16	-6.120235443115234	24.34975433349609	-35.57435226440427	44.30660247802734	-497.0085144042969	8.804861068725586	-5.1732497215271	-0.6144334077835077	-172.6266632080078	47.71782684326173	-15.09967231750489	18.16055107116699	2.023862361907958	73.00404357910156	-392.1949768066406	39.5257263183594	228.2608032226562	-114.1450424194336	-9.238716125488274	374.0277099609375	114.1450424194336	9.238716125488274	374.0277099609375	
54	0.53	-575.3975830078125	496.4729309082032	229.3386688232422	-259.6289978027343	654.7078857421875	313.33984375	-510.8301391601562	554.7415771484375	-123.1384735107422	-742.5069580078125	817.9862060546875	251.8771820068359	-552.7076416015625	77.6650085449219	170.3356323242187	-502.6385192871094	265.2233886718751	166.6806640625	-605.1129760742188	88.01709747314457	-16.33232116699222	-732.8330688476562	126.7883911132813	223.6284790039062	-673.9375	124.0796661376954	220.0887908935547	-360.1969909667969	45.08937835693362	57.8717346191406	-828.8157958984375	173.0956726074219	-103.325912475586	-581.3818359375	473.8580322265626	228.7769470214843	-492.6658325195312	61.29054641723636	152.5713653564453	-475.9761352539062	123.8100051879883	151.35302734375	-510.13427734375	64.74123382568362	90.34869384765622	-552.7077026367188	77.66502380371097	170.3356475830078	-750.467529296875	818.1146850585938	318.1349182128906	-618.64404296875	804.521240234375	333.9993591308593	-734.5463256835938	817.8576049804688	185.6194458007812	-736.9406127929686	950.88916015625	319.5025329589843	-798.74658203125	479.8901672363282	362.7726745605468	-459.9592895507812	438.8384704589844	373.4403381347656	-785.5756225585938	500.0829772949219	22.19284057617183	-758.4282836914062	818.2432861328125	384.3926696777343	-738.8999633789062	58.46444702148442	387.1713562011718	-739.4441528320312	251.903793334961	388.3242187499999	-697.19921875	59.70753479003911	198.2800750732421	-927.7945556640625	58.18157958984381	345.4680175781249	-870.3473510742188	70.93527221679693	345.3398437499999	-508.0215454101563	1.923141479492219	476.1278686523437	-738.7371826171875	63.59986114501957	-23.13418579101567	-802.9163208007812	456.0738220214844	361.7574462890624	-675.9351196289062	58.55872344970707	401.0724487304687	-676.116455078125	123.0385055541993	401.4567565917968	-662.034912109375	58.97309875488286	338.1087036132812	-738.8999633789062	58.46448516845707	387.1713562011718	-737.0361938476561	1284.809936523438	314.9782104492187	nan	nan	nan	nan	nan	nan	nan	nan	nan	-837.6633911132811	1355.62158203125	328.8372802734374	-872.0079956054686	1052.054321289062	311.1009216308593	-732.5379638671874	1284.93359375	315.0108642578124	-685.3109130859374	1121.4033203125	326.9278869628906	-852.3752441406249	1260.315185546875	456.5971374511718	-689.14306640625	902.4068603515625	216.2462463378906	-714.9841918945312	902.8241577148438	431.3267517089843	-865.485595703125	914.8521118164062	255.7900085449218	-875.2761840820312	925.2047119140625	340.3426818847656	-604.247802734375	612.0783081054688	120.0209045410156	-564.1931762695312	506.5842895507813	168.1731414794922	-573.42333984375	485.2299194335938	290.6738586425781	-509.4854431152343	492.1600341796876	220.4923858642578	-533.940185546875	433.1185913085938	213.1947326660156	-681.6344604492188	271.4123535156251	133.4597015380859	-690.1989135742188	129.2261047363282	186.1317901611328	-655.8414306640625	126.6495666503907	260.5097045898437	-746.1524047851562	93.09359741210942	232.9530639648437	-564.2611083984375	50.17786788940433	175.5914306640625	-601.2352905273438	37.78839874267582	137.938980102539	-795.8765869140625	532.8767700195312	475.5342712402343	-801.25390625	476.0459289550782	427.6104125976562	-793.005859375	476.5682373046876	291.3710937499999	-732.6543579101562	454.7831726074219	360.5281372070312	-752.8018798828125	396.1361389160157	365.4492187499999	-879.3148193359375	198.4540405273438	437.4696655273437	-882.9588012695312	71.63817596435553	380.6485595703124	-850.718994140625	89.69947814941412	303.7346801757812	-935.4034423828125	40.50199890136724	333.1015930175781	-737.9469604492188	39.37217712402348	376.7429809570312	-772.4468383789062	20.58116912841801	419.7469787597656	-712.6435546875	614.7110595703125	176.5679626464843	-657.2787475585938	594.5901489257812	151.6940307617187	-659.2319946289062	535.3802490234375	182.4631958007812	-584.172119140625	315.8850708007813	231.2411499023437	-602.4559936523438	273.0605773925782	182.6005249023437	-613.7243041992188	227.6868591308594	233.3367614746093	-580.6112670898438	464.7841796875001	162.4052734375	-588.463134765625	453.8511657714844	284.7404174804687	-829.9171752929688	628.6322021484375	447.3167114257812	-779.5872802734375	578.6813354492188	444.7170715332031	-826.24072265625	529.125	432.2457885742187	-778.457275390625	318.7584533691407	347.2614440917968	-802.4617919921875	266.2835998535157	397.9585571289062	-808.3827514648438	222.7825164794922	342.2601318359374	-809.334228515625	445.3454895019532	421.9010314941406	-810.76611328125	432.9042968750001	293.7707214355468	-767.6215209960936	973.8748168945312	168.507339477539	-792.2658691406249	982.6512451171875	458.0310974121093	-723.9837646484375	847.1063842773438	307.0513305664062	-723.9837646484375	4.433122000056799e-14	307.0513305664062	6.79120206832886	7.337113857269287	-32.76771926879883	-10.2118558883667	-34.27910614013672	-41.2740478515625	2.175369262695313	10.71885776519775	0.8080251216888429	-4.861391392184515e-17	0	0.7939254641532898	-2.905678272247314	5.030603885650635	1.332695245742798	1.318121552467345	-17.94874000549316	-3.0937340259552	1.461360335350038	7.202856063842773	-10.37909507751465	6.304659539283203e-16	0	-10.29629039764404	0.1740145236253738	6.506259918212891	7.395532608032227	-0.1740145236253747	-6.506259918212891	7.395532608032227	-0.7135114669799806	0.415899395942688	1.579804658889771	0.7135114669799804	-0.415899395942688	1.579804658889771	-0.5870974659919731	6.826842784881592	-5.817162036895752	0.5870974659919738	-6.826842784881592	-5.817162036895752	-1.121715068817144	-15.93090057373047	74.74540710449219	-0.349700063467032	-12.44979667663574	90.08580017089844	8.265986308443459e-19	0.01349938008934259	5.061456837215564e-35	-3.665251261790656e-17	-0.5985809564590454	-2.244319112911362e-33	-5.614140287629008e-18	-0.09168586879968643	-3.437669466604533e-34	1.32378227158316e-18	0.02161900512874126	8.105828608311646e-35	2.567216152222379e-18	0.0419258214533329	1.57196652176926e-34	-1.452914917647307e-17	-0.237279012799263	-8.896538016651072e-34	4.169498399702388e-18	0.06809307634830475	2.55308143462277e-34	4.169498399702388e-18	0.06809307634830475	2.55308143462277e-34	nan	nan	nan	0.228576004505158	8.46656608581543	-0.2822720110416412	nan	nan	nan	2.877390623092657	86.30546569824219	2.330030679702759	0.03402078524231909	-0.08277370035648346	0.2735910713672638	0.3741926848888402	-0.1733741909265518	-8.320147514343262	-0.06808045506477353	0.7829332947731018	0.2690737545490265	0.1552372574806209	-7.774688243865967	-1.326137065887451	-0.116363227367401	1.554091215133667	-0.4731488227844238	0.6425293684005733	-6.883338451385498	-0.8752985000610352	0.2436606734991071	-4.051254749298096	-0.3789960443973541	0.2436606734991071	-4.051254749298096	-0.3789960443973541	nan	nan	nan	-1063.315673828125	89.73760223388679	1129.615356445312	-6.839924099229637e-15	-6.878365993499756	25.25548553466797	-38.22784042358395	47.37750625610352	-547.146240234375	10.69336891174316	-5.84728765487671	16.7966136932373	-174.0512390136719	52.07722091674805	-6.366497039794933	15.14253997802734	6.697524070739745	65.59592437744141	-405.6934509277344	44.03826904296877	242.8539123535156	-121.489013671875	-18.98941612243652	380.4755859375	121.489013671875	18.98941612243652	380.4755859375	
55	0.54	-563.6837768554688	495.5614318847657	232.1089782714843	-248.3280334472656	655.6477661132812	314.0394287109375	-499.7055358886718	550.2606811523438	-121.0259399414063	-731.7522583007812	816.7620239257812	251.4124145507812	-512.9627075195312	78.28193664550784	171.2171783447265	-474.9044494628906	268.6720581054688	169.9596099853515	-559.550048828125	86.35070800781253	-17.09887695312504	-697.5693359375	115.4962921142579	218.4813537597656	-638.5348510742188	116.5734176635743	216.9529418945312	-315.3007202148438	58.94435501098635	61.6555480957031	-788.5128784179688	159.3123016357422	-111.0694274902344	-568.2142944335938	472.6225280761719	231.1916198730468	-451.4271240234375	65.87715148925784	155.4624481201172	-438.7410278320312	129.3405456542969	155.0432739257812	-466.9562377929688	68.56674957275393	92.69042205810544	-512.962646484375	78.28192901611331	171.2171783447265	-740.4194946289062	816.900390625	317.5814208984374	-608.7826538085938	803.2135620117188	334.8528137207031	-723.0848999023438	816.6236572265625	185.2434387207031	-726.8128051757811	949.6652221679688	319.0860900878906	-793.1573486328125	479.0434875488282	362.0778198242187	-454.751953125	434.2054443359375	373.215087890625	-779.2906494140625	499.0797729492188	21.40356445312495	-749.0869140625	817.0387573242188	383.7503662109374	-738.6385498046875	58.40064620971684	387.1607971191406	-738.7555541992188	251.8440551757813	387.3093261718749	-696.622802734375	58.57103729248051	198.3353729248046	-927.4640502929688	58.31865692138678	345.1449584960937	-869.9886474609375	70.94451141357428	345.0463562011718	-508.6190185546876	-2.565101623535125	476.2559204101562	-738.1403198242188	61.49747085571293	-23.37521362304692	-797.6309814453125	455.2812194824219	361.0861206054687	-675.6966552734375	58.42797851562504	401.1660766601562	-675.7356567382812	122.9091186523438	401.2155761718749	-661.69140625	58.4847679138184	338.2242736816406	-738.6384887695312	58.40064239501957	387.1607971191406	-725.9057006835936	1283.50439453125	314.6953124999999	nan	nan	nan	nan	nan	nan	nan	nan	nan	-826.6248779296874	1354.425903320312	328.6284484863281	-861.6966552734374	1051.05419921875	309.5816040039062	-721.4074096679686	1283.614501953125	314.7501831054687	-674.8051757812499	1119.890747070312	326.8870849609374	-841.4840698242186	1259.104370117188	456.4321899414062	-677.94970703125	901.1422119140625	216.3418579101562	-706.0865478515625	901.5914306640625	431.1475830078124	-854.6441650390625	913.6680297851562	253.9222412109374	-865.33056640625	924.120849609375	338.3475952148437	-593.0669555664062	609.7390747070312	122.111831665039	-552.5809326171875	505.0539245605469	170.8258514404297	-563.8096313476562	483.2683410644532	292.8031616210937	-498.9717102050781	491.7348632812501	224.2768402099609	-520.7881469726562	433.3414916992188	216.6083526611328	-653.57470703125	263.9095458984376	130.9743041992187	-654.22607421875	121.0449142456055	182.6339874267578	-622.7393798828125	120.1410903930664	258.2065429687499	-709.1685791015625	81.03430175781254	227.320816040039	-523.3148193359375	50.31880187988285	176.1194305419922	-558.0489501953125	36.12282180786136	137.0699157714843	-789.835693359375	532.1187133789062	474.8303527832031	-795.7962646484375	475.2303161621094	426.9122009277343	-787.1622924804688	475.6083984375001	290.8695983886718	-727.4608154296875	452.8074340820313	360.0910034179687	-748.5156860351562	394.7307434082032	365.1309204101562	-877.3841552734375	198.6968688964844	436.9874877929687	-882.6204223632812	71.84957885742193	380.3432006835937	-850.17626953125	89.46801757812506	303.4042053222656	-935.2828369140625	40.88842773437506	332.7232971191406	-737.8494873046875	39.2856941223145	376.7998962402343	-772.4811401367188	20.56786155700688	419.7657775878906	-701.7236328125	613.0458374023438	178.0101776123046	-646.2542724609375	592.6950073242188	153.6006927490234	-648.67724609375	533.4642944335938	184.4349060058593	-563.347412109375	314.2109985351563	232.5084991455078	-576.6450805664062	270.5738830566407	183.0834808349609	-586.7570190429688	224.2511444091797	233.2595825195312	-567.1989135742188	463.1573486328126	164.4065246582031	-578.1067504882812	451.4162292480469	286.4219360351562	-823.0427856445312	628.1090698242188	446.5626220703124	-773.1550903320312	577.7268676757812	444.0478820800781	-820.2015991210938	528.5625	431.5015258789062	-774.9885864257812	317.6577148437501	346.6929626464843	-799.6091918945312	265.4920349121094	397.4781188964843	-806.1403198242188	222.0368804931641	341.7837219238281	-804.2469482421875	444.6270141601563	421.1889648437499	-805.5523071289062	432.1642761230469	293.1014404296874	-755.6245727539061	972.9390258789062	167.7826538085937	-783.7742919921874	981.4229736328125	456.9989318847656	-712.642578125	845.5515747070312	306.9187011718749	-712.642578125	4.363677261184494e-14	306.9187011718749	6.585518836975099	6.465754985809326	-32.9597282409668	-8.26157283782959	-33.68380737304688	-38.00342559814453	2.354767799377442	11.26315689086914	0.7799662947654725	-4.68392828953679e-17	0	0.764943540096283	-2.76332664489746	5.551272869110107	1.950215816497803	1.388612627983092	-17.93794441223145	-3.187796354293823	1.447323083877565	7.143663883209229	-11.02567863464355	6.698225017938898e-16	0	-10.93903160095215	0.2829343974590302	6.849302768707275	7.262430667877197	-0.282934397459031	-6.849302768707275	7.262430667877197	-0.8472810983657838	0.6990880370140076	1.414084434509277	0.8472810983657836	-0.6990880370140076	1.414084434509277	-0.6459370851516716	7.435632705688477	-5.851657867431641	0.6459370851516723	-7.435632705688477	-5.851657867431641	-0.3826022446155605	-14.08895587921143	78.60265350341797	-0.04506286606193217	-12.54459476470947	90.02489471435547	6.663259592053923e-19	0.01088192872703075	4.080069765648367e-35	-4.152548132456201e-17	-0.6781625747680664	-2.542702389358902e-33	-1.599824563659103e-17	-0.2612711787223816	-9.79610015541216e-34	1.836489191433299e-18	0.02999214455485344	1.12452530497875e-34	2.381638007622373e-18	0.03889510035514832	1.458332681381209e-34	-1.633834955080822e-17	-0.2668254971504211	-1.000435374037394e-33	3.658283878025503e-18	0.05974430963397026	2.240052820798149e-34	3.658283878025503e-18	0.05974430963397026	2.240052820798149e-34	nan	nan	nan	0.2479499131441122	8.606101036071777	-0.304983526468277	nan	nan	nan	3.108904361724859	87.72783660888672	2.527522087097168	0.03977028280496595	-0.1081435158848763	0.2947249114513397	0.3559944331645971	-0.1771254688501358	-8.46147346496582	-0.08668357133865352	0.8693963289260864	0.3049406707286835	0.1422484517097469	-7.898246288299561	-1.436446309089661	-0.1524289995431899	1.664298534393311	-0.4776882529258728	0.6742649674415585	-7.016772747039795	-0.9661313891410828	0.2153980582952497	-4.100081920623779	-0.3542689085006714	0.2153980582952497	-4.100081920623779	-0.3542689085006714	nan	nan	nan	-1088.24853515625	98.58675384521491	1195.24462890625	-3.375131378689261e-15	-7.064840793609619	25.95229721069336	-41.09392166137692	49.77949523925781	-602.457763671875	10.79675769805908	-5.922307014465333	41.25493621826172	-174.5744781494141	56.06104278564455	1.278941512107838	14.61631679534912	11.79212760925293	42.89030075073242	-418.7976379394531	48.07415390014651	264.2598876953125	-129.4918365478516	-32.85949707031249	380.1952209472656	129.4918365478515	32.85949707031249	380.1952209472656	
